<svg width="28" height="28" viewBox="0 0 28 28" fill="none" xmlns="http://www.w3.org/2000/svg">
<path d="M14 16.25C15.2426 16.25 16.25 15.2426 16.25 14C16.25 12.7574 15.2426 11.75 14 11.75C12.7574 11.75 11.75 12.7574 11.75 14C11.75 15.2426 12.7574 16.25 14 16.25Z" stroke="white" stroke-width="1.5" stroke-linecap="round" stroke-linejoin="round"/>
<path d="M19.55 16.25C19.4502 16.4762 19.4204 16.7271 19.4645 16.9704C19.5086 17.2137 19.6246 17.4382 19.7975 17.615L19.8425 17.66C19.982 17.7993 20.0926 17.9647 20.1681 18.1468C20.2436 18.3289 20.2824 18.5241 20.2824 18.7213C20.2824 18.9184 20.2436 19.1136 20.1681 19.2957C20.0926 19.4778 19.982 19.6432 19.8425 19.7825C19.7032 19.922 19.5378 20.0326 19.3557 20.1081C19.1736 20.1836 18.9784 20.2224 18.7812 20.2224C18.5841 20.2224 18.3889 20.1836 18.2068 20.1081C18.0247 20.0326 17.8593 19.922 17.72 19.7825L17.675 19.7375C17.4982 19.5646 17.2737 19.4486 17.0304 19.4045C16.7871 19.3604 16.5362 19.3902 16.31 19.49C16.0882 19.5851 15.899 19.7429 15.7657 19.9442C15.6325 20.1454 15.561 20.3812 15.56 20.6225V20.75C15.56 21.1478 15.402 21.5294 15.1207 21.8107C14.8394 22.092 14.4578 22.25 14.06 22.25C13.6622 22.25 13.2806 22.092 12.9993 21.8107C12.718 21.5294 12.56 21.1478 12.56 20.75V20.6825C12.5542 20.4343 12.4738 20.1935 12.3294 19.9915C12.1849 19.7896 11.9831 19.6357 11.75 19.55C11.5238 19.4502 11.2729 19.4204 11.0296 19.4645C10.7863 19.5086 10.5618 19.6246 10.385 19.7975L10.34 19.8425C10.2007 19.982 10.0353 20.0926 9.85316 20.1681C9.67106 20.2436 9.47587 20.2824 9.27875 20.2824C9.08163 20.2824 8.88644 20.2436 8.70434 20.1681C8.52224 20.0926 8.35681 19.982 8.2175 19.8425C8.07804 19.7032 7.9674 19.5378 7.89191 19.3557C7.81642 19.1736 7.77757 18.9784 7.77757 18.7812C7.77757 18.5841 7.81642 18.3889 7.89191 18.2068C7.9674 18.0247 8.07804 17.8593 8.2175 17.72L8.2625 17.675C8.4354 17.4982 8.55139 17.2737 8.5955 17.0304C8.63962 16.7871 8.60984 16.5362 8.51 16.31C8.41493 16.0882 8.25707 15.899 8.05585 15.7657C7.85463 15.6325 7.61884 15.561 7.3775 15.56H7.25C6.85218 15.56 6.47064 15.402 6.18934 15.1207C5.90804 14.8394 5.75 14.4578 5.75 14.06C5.75 13.6622 5.90804 13.2806 6.18934 12.9993C6.47064 12.718 6.85218 12.56 7.25 12.56H7.3175C7.56575 12.5542 7.8065 12.4738 8.00847 12.3294C8.21045 12.1849 8.36429 11.9831 8.45 11.75C8.54984 11.5238 8.57962 11.2729 8.5355 11.0296C8.49139 10.7863 8.3754 10.5618 8.2025 10.385L8.1575 10.34C8.01804 10.2007 7.9074 10.0353 7.83191 9.85316C7.75642 9.67106 7.71757 9.47587 7.71757 9.27875C7.71757 9.08163 7.75642 8.88644 7.83191 8.70434C7.9074 8.52224 8.01804 8.35681 8.1575 8.2175C8.29681 8.07804 8.46224 7.9674 8.64434 7.89191C8.82644 7.81642 9.02163 7.77757 9.21875 7.77757C9.41587 7.77757 9.61106 7.81642 9.79316 7.89191C9.97526 7.9674 10.1407 8.07804 10.28 8.2175L10.325 8.2625C10.5018 8.4354 10.7263 8.55139 10.9696 8.5955C11.2129 8.63962 11.4638 8.60984 11.69 8.51H11.75C11.9718 8.41493 12.161 8.25707 12.2943 8.05585C12.4275 7.85463 12.499 7.61884 12.5 7.3775V7.25C12.5 6.85218 12.658 6.47064 12.9393 6.18934C13.2206 5.90804 13.6022 5.75 14 5.75C14.3978 5.75 14.7794 5.90804 15.0607 6.18934C15.342 6.47064 15.5 6.85218 15.5 7.25V7.3175C15.501 7.55884 15.5725 7.79463 15.7057 7.99585C15.839 8.19707 16.0282 8.35493 16.25 8.45C16.4762 8.54984 16.7271 8.57962 16.9704 8.5355C17.2137 8.49139 17.4382 8.3754 17.615 8.2025L17.66 8.1575C17.7993 8.01804 17.9647 7.9074 18.1468 7.83191C18.3289 7.75642 18.5241 7.71757 18.7213 7.71757C18.9184 7.71757 19.1136 7.75642 19.2957 7.83191C19.4778 7.9074 19.6432 8.01804 19.7825 8.1575C19.922 8.29681 20.0326 8.46224 20.1081 8.64434C20.1836 8.82644 20.2224 9.02163 20.2224 9.21875C20.2224 9.41587 20.1836 9.61106 20.1081 9.79316C20.0326 9.97526 19.922 10.1407 19.7825 10.28L19.7375 10.325C19.5646 10.5018 19.4486 10.7263 19.4045 10.9696C19.3604 11.2129 19.3902 11.4638 19.49 11.69V11.75C19.5851 11.9718 19.7429 12.161 19.9442 12.2943C20.1454 12.4275 20.3812 12.499 20.6225 12.5H20.75C21.1478 12.5 21.5294 12.658 21.8107 12.9393C22.092 13.2206 22.25 13.6022 22.25 14C22.25 14.3978 22.092 14.7794 21.8107 15.0607C21.5294 15.342 21.1478 15.5 20.75 15.5H20.6825C20.4412 15.501 20.2054 15.5725 20.0042 15.7057C19.8029 15.839 19.6451 16.0282 19.55 16.25V16.25Z" stroke="white" stroke-width="1.5" stroke-linecap="round" stroke-linejoin="round"/>
<circle cx="14" cy="14" r="13.4167" stroke="white" stroke-width="1.16667"/>
</svg>
