<svg width="28" height="28" viewBox="0 0 28 28" fill="none" xmlns="http://www.w3.org/2000/svg">
<path d="M22.25 20.75V19.25C22.2495 18.5853 22.0283 17.9396 21.621 17.4142C21.2138 16.8889 20.6436 16.5137 20 16.3475" stroke="white" stroke-width="1.5" stroke-linecap="round" stroke-linejoin="round"/>
<path d="M17.75 20.75V19.25C17.75 18.4544 17.4339 17.6913 16.8713 17.1287C16.3087 16.5661 15.5456 16.25 14.75 16.25H8.75C7.95435 16.25 7.19129 16.5661 6.62868 17.1287C6.06607 17.6913 5.75 18.4544 5.75 19.25V20.75" stroke="white" stroke-width="1.5" stroke-linecap="round" stroke-linejoin="round"/>
<path d="M17 7.3475C17.6453 7.51273 18.2173 7.88803 18.6257 8.41424C19.0342 8.94044 19.2559 9.58763 19.2559 10.2538C19.2559 10.9199 19.0342 11.5671 18.6257 12.0933C18.2173 12.6195 17.6453 12.9948 17 13.16" stroke="white" stroke-width="1.5" stroke-linecap="round" stroke-linejoin="round"/>
<path d="M11.75 13.25C13.4069 13.25 14.75 11.9069 14.75 10.25C14.75 8.59315 13.4069 7.25 11.75 7.25C10.0931 7.25 8.75 8.59315 8.75 10.25C8.75 11.9069 10.0931 13.25 11.75 13.25Z" stroke="white" stroke-width="1.5" stroke-linecap="round" stroke-linejoin="round"/>
<circle cx="14" cy="14" r="13.4167" stroke="white" stroke-width="1.16667"/>
</svg>
