<svg width="28" height="28" viewBox="0 0 28 28" fill="none" xmlns="http://www.w3.org/2000/svg">
<path d="M19.25 8.75L8.75 19.25" stroke="white" stroke-width="1.5" stroke-linecap="round" stroke-linejoin="round"/>
<path d="M18.125 20C19.1605 20 20 19.1605 20 18.125C20 17.0895 19.1605 16.25 18.125 16.25C17.0895 16.25 16.25 17.0895 16.25 18.125C16.25 19.1605 17.0895 20 18.125 20Z" stroke="white" stroke-width="1.5" stroke-linecap="round" stroke-linejoin="round"/>
<path d="M9.875 11.75C10.9105 11.75 11.75 10.9105 11.75 9.875C11.75 8.83947 10.9105 8 9.875 8C8.83947 8 8 8.83947 8 9.875C8 10.9105 8.83947 11.75 9.875 11.75Z" stroke="white" stroke-width="1.5" stroke-linecap="round" stroke-linejoin="round"/>
<circle cx="14" cy="14" r="13.5" stroke="white"/>
</svg>
