<svg width="28" height="28" viewBox="0 0 28 28" fill="none" xmlns="http://www.w3.org/2000/svg">
<path d="M14 21.5C18.1421 21.5 21.5 18.1421 21.5 14C21.5 9.85786 18.1421 6.5 14 6.5C9.85786 6.5 6.5 9.85786 6.5 14C6.5 18.1421 9.85786 21.5 14 21.5Z" stroke="white" stroke-width="1.5" stroke-linecap="round" stroke-linejoin="round"/>
<path d="M14 17.75H14.0067" stroke="white" stroke-width="1.5" stroke-linecap="round" stroke-linejoin="round"/>
<path d="M11.8176 11.75C11.994 11.2488 12.342 10.8261 12.8001 10.5568C13.2582 10.2876 13.7968 10.1892 14.3205 10.279C14.8442 10.3689 15.3192 10.6411 15.6614 11.0476C16.0036 11.4541 16.1909 11.9686 16.1901 12.5C16.1901 14 13.9401 14.75 13.9401 14.75" stroke="white" stroke-width="1.5" stroke-linecap="round" stroke-linejoin="round"/>
<circle cx="14" cy="14" r="13.4167" stroke="white" stroke-width="1.16667"/>
</svg>
