<svg width="28" height="28" viewBox="0 0 28 28" fill="none" xmlns="http://www.w3.org/2000/svg">
<path d="M19.25 13.25H8.75C7.92157 13.25 7.25 13.9216 7.25 14.75V20C7.25 20.8284 7.92157 21.5 8.75 21.5H19.25C20.0784 21.5 20.75 20.8284 20.75 20V14.75C20.75 13.9216 20.0784 13.25 19.25 13.25Z" stroke="white" stroke-width="1.5" stroke-linecap="round" stroke-linejoin="round"/>
<path d="M10.25 13.25V10.25C10.25 9.25544 10.6451 8.30161 11.3483 7.59835C12.0516 6.89509 13.0054 6.5 14 6.5C14.9946 6.5 15.9484 6.89509 16.6517 7.59835C17.3549 8.30161 17.75 9.25544 17.75 10.25V13.25" stroke="white" stroke-width="1.5" stroke-linecap="round" stroke-linejoin="round"/>
<circle cx="14" cy="14" r="13.5" stroke="white"/>
</svg>
